<svg id="Layer_1" data-name="Layer 1" xmlns="http://www.w3.org/2000/svg" viewBox="0 0 295.66 73.1"><path d="M37.4,30.94,30,26.12A.78.78,0,0,1,29.77,25a.84.84,0,0,1,.23-.23L37.4,20a1.58,1.58,0,0,1,1.72,0l7.42,4.82a.78.78,0,0,1,.23,1.08.84.84,0,0,1-.23.23L39.12,31A1.58,1.58,0,0,1,37.4,30.94Z" style="fill:#0096dc"/><path d="M38.17,47.7l-7.42-4.82a.78.78,0,0,1-.23-1.08.84.84,0,0,1,.23-.23l7.42-4.82a1.58,1.58,0,0,1,1.72,0l7.42,4.82a.78.78,0,0,1,.23,1.08.84.84,0,0,1-.23.23L39.89,47.7A1.58,1.58,0,0,1,38.17,47.7Z" style="fill:#faaf00"/><path d="M24.88,39.1l-7.42-4.82a.78.78,0,0,1-.22-1.08.77.77,0,0,1,.22-.22l7.42-4.82a1.59,1.59,0,0,1,1.73,0L34,33a.78.78,0,0,1,.22,1.08.77.77,0,0,1-.22.22l-7.39,4.8A1.59,1.59,0,0,1,24.88,39.1Z" style="fill:#faaf00"/><path d="M20.76,24.38l-7.42-4.82a1.58,1.58,0,0,0-1.72,0L4.2,24.38A.78.78,0,0,0,4,25.46a.84.84,0,0,0,.23.23l7.42,4.81a1.58,1.58,0,0,0,1.72,0l7.42-4.81A.78.78,0,0,0,21,24.61.84.84,0,0,0,20.76,24.38Z" style="fill:#faaf00"/><path d="M24.13,22.34l-7.42-4.82a.78.78,0,0,1-.23-1.08.84.84,0,0,1,.23-.23l7.42-4.82a1.58,1.58,0,0,1,1.72,0l7.42,4.82a.78.78,0,0,1,.23,1.08.84.84,0,0,1-.23.23l-7.42,4.82A1.58,1.58,0,0,1,24.13,22.34Z" style="fill:#faaf00"/><path d="M36.06,14.63,28.64,9.81a.78.78,0,0,1-.22-1.08.77.77,0,0,1,.22-.22l7.42-4.82a1.59,1.59,0,0,1,1.73,0l7.42,4.82a.78.78,0,0,1,.22,1.08.77.77,0,0,1-.22.22l-7.42,4.82A1.59,1.59,0,0,1,36.06,14.63Z" style="fill:#faaf00"/><path d="M49.33,23.23l-7.42-4.82a.78.78,0,0,1-.23-1.08.84.84,0,0,1,.23-.23l7.42-4.81a1.58,1.58,0,0,1,1.72,0l7.42,4.81a.78.78,0,0,1,.23,1.08.84.84,0,0,1-.23.23l-7.42,4.82A1.58,1.58,0,0,1,49.33,23.23Z" style="fill:#faaf00"/><path d="M55.19,25.7l7.42-4.82a1.59,1.59,0,0,1,1.73,0l7.42,4.82A.78.78,0,0,1,72,26.78a.84.84,0,0,1-.23.23l-7.42,4.82a1.59,1.59,0,0,1-1.73,0L55.19,27A.78.78,0,0,1,55,25.92.77.77,0,0,1,55.19,25.7Z" style="fill:#faaf00"/><path d="M43.26,33.41l7.42-4.82a1.59,1.59,0,0,1,1.73,0l7.42,4.82a.78.78,0,0,1,.22,1.08.77.77,0,0,1-.22.22l-7.42,4.82a1.59,1.59,0,0,1-1.73,0l-7.42-4.82A.78.78,0,0,1,43,33.63.77.77,0,0,1,43.26,33.41Z" style="fill:#faaf00"/><path d="M71.14,34.31,40.75,54.05a5.2,5.2,0,0,1-5.67,0L4.77,34.36a3.28,3.28,0,0,1-.95-1.71v4.72h0a2.13,2.13,0,0,0,1,1.89L35.08,58.94a5.2,5.2,0,0,0,5.67,0L71.14,39.2a2.12,2.12,0,0,0,1-1.83h0v-4.8A3.37,3.37,0,0,1,71.14,34.31Z" style="fill:#00508c"/><path d="M71.14,44.3,40.75,64a5.2,5.2,0,0,1-5.67,0L4.77,44.35a3.32,3.32,0,0,1-.95-1.7v4.71h0a2.11,2.11,0,0,0,1,1.88L35.08,68.93a5.2,5.2,0,0,0,5.67,0L71.14,49.19a2.12,2.12,0,0,0,1-1.83h0V42.57A3.49,3.49,0,0,1,71.14,44.3Z" style="fill:#faaf00"/><path d="M266.07,25.78a12.93,12.93,0,0,0-12.91,12.9h0V55.4h4.94V38.69h0A8,8,0,0,1,274,37.19a7.52,7.52,0,0,1,0,1.5h0V55.4h5V38.69h0a12.93,12.93,0,0,0-12.95-12.91Z" style="fill:#00508c"/><polygon points="98.49 55.4 103.68 55.4 103.68 22.61 118.14 22.61 118.14 17.8 86.04 17.8 82.22 22.61 98.49 22.61 98.49 55.4" style="fill:#00508c"/><path d="M126.83,25.78a15.19,15.19,0,1,0,.16,0Zm0,26c-6.11,0-10.31-4.8-10.31-10.71s4.2-10.71,10.31-10.71,10.32,4.86,10.32,10.71S133,51.76,126.83,51.76Z" style="fill:#00508c"/><path d="M232.94,25.78a15.18,15.18,0,1,0,.17,0Zm0,26c-6.12,0-10.32-4.8-10.32-10.71s4.2-10.71,10.32-10.71,10.32,4.86,10.32,10.71-4.21,10.69-10.32,10.69Z" style="fill:#00508c"/><path d="M166.37,31.13a19.51,19.51,0,0,1,2.89-3.7A15.29,15.29,0,0,0,147.06,41V55.4H152V41c0-5.84,4.21-10.69,10.32-10.69A10.43,10.43,0,0,1,166.37,31.13Z" style="fill:#00508c"/><rect x="175.57" y="17.8" width="4.94" height="4.96" style="fill:#00508c"/><rect x="175.57" y="25.78" width="4.94" height="29.62" style="fill:#00508c"/><path d="M266.07,25.78a12.93,12.93,0,0,0-12.91,12.9h0V55.4h4.94V38.69h0A8,8,0,0,1,274,37.19a7.52,7.52,0,0,1,0,1.5h0V55.4h5V38.69h0a12.93,12.93,0,0,0-12.95-12.91Z" style="fill:#00508c"/><polygon points="213.18 25.78 191.86 25.78 188.23 30.33 188.23 30.36 206.97 30.36 188.23 50.83 188.23 55.4 213.18 55.4 213.18 50.82 194.41 50.82 213.18 30.36 213.18 30.36 213.18 25.78" style="fill:#00508c"/><path d="M281.56,18.73H279V17.8h6.27v.93h-2.52v7.06h-1.22ZM287,17.8h2l2.34,6.2,2.35-6.16h2v8h-1.21v-7h0l-2.66,7H291l-2.65-6.95h0v7H287Z" style="fill:#00508c"/></svg>